<?xml version="1.0" encoding="UTF-8" standalone="no"?>
<!DOCTYPE svg PUBLIC "-//W3C//DTD SVG 1.1//EN"
 "http://www.w3.org/Graphics/SVG/1.1/DTD/svg11.dtd">
<!-- Generated by graphviz version 2.40.1 (20161225.0304)
 -->
<!-- Pages: 1 -->
<svg width="507pt" height="674pt"
 viewBox="0.00 0.00 506.50 674.00" xmlns="http://www.w3.org/2000/svg" xmlns:xlink="http://www.w3.org/1999/xlink">
<g id="graph0" class="graph" transform="scale(1 1) rotate(0) translate(4 670)">
<polygon fill="#ffffff" stroke="transparent" points="-4,4 -4,-670 502.5,-670 502.5,4 -4,4"/>
<!-- 4315279904 -->
<g id="node1" class="node">
<title>4315279904</title>
<polygon fill="none" stroke="#000000" points="258.5,-405 124.5,-405 124.5,-369 258.5,-369 258.5,-405"/>
<text text-anchor="middle" x="191.5" y="-383.3" font-family="Times,serif" font-size="14.00" fill="#000000">4: for _ in range(10):</text>
</g>
<!-- 4315279952 -->
<g id="node2" class="node">
<title>4315279952</title>
<polygon fill="none" stroke="#000000" points="498.5,-264 436.5,-264 436.5,-228 498.5,-228 498.5,-264"/>
<text text-anchor="middle" x="467.5" y="-242.3" font-family="Times,serif" font-size="14.00" fill="#000000">10: pass</text>
</g>
<!-- 4315279904&#45;&gt;4315279952 -->
<g id="edge1" class="edge">
<title>4315279904&#45;&gt;4315279952</title>
<path fill="none" stroke="#000000" d="M258.5,-380.62C312.37,-374.63 383.11,-364.56 408.5,-351 437.36,-335.59 452.98,-299.8 460.76,-274.3"/>
<polygon fill="#000000" stroke="#000000" points="464.2006,-274.9948 463.55,-264.42 457.464,-273.0925 464.2006,-274.9948"/>
<text text-anchor="middle" x="438.5" y="-339.8" font-family="Times,serif" font-size="14.00" fill="#000000">else</text>
</g>
<!-- 4315279472 -->
<g id="node3" class="node">
<title>4315279472</title>
<polygon fill="none" stroke="#000000" points="132.5,-123 78.5,-123 78.5,-87 132.5,-87 132.5,-123"/>
<text text-anchor="start" x="92" y="-101.3" font-family="Times,serif" font-size="14.00" fill="#000000">raise</text>
</g>
<!-- 4315279904&#45;&gt;4315279472 -->
<g id="edge2" class="edge">
<title>4315279904&#45;&gt;4315279472</title>
<path fill="none" stroke="#000000" d="M180.45,-368.83C172.57,-355.23 162.23,-335.97 155.5,-318 131.47,-253.87 116.48,-174.41 109.73,-133.03"/>
<polygon fill="#000000" stroke="#000000" points="113.1824,-132.4534 108.15,-123.13 106.2698,-133.5567 113.1824,-132.4534"/>
<text text-anchor="start" x="138.5" y="-242.3" font-family="Times,serif" font-size="14.00" fill="#000000">raise</text>
</g>
<!-- 4315280048 -->
<g id="node4" class="node">
<title>4315280048</title>
<polygon fill="none" stroke="#000000" points="300.5,-318 164.5,-318 164.5,-282 300.5,-282 300.5,-318"/>
<text text-anchor="middle" x="232.5" y="-296.3" font-family="Times,serif" font-size="14.00" fill="#000000">5: if some_condition:</text>
</g>
<!-- 4315279904&#45;&gt;4315280048 -->
<g id="edge3" class="edge">
<title>4315279904&#45;&gt;4315280048</title>
<path fill="none" stroke="#000000" d="M200,-368.97C205.66,-356.96 213.21,-340.94 219.6,-327.36"/>
<polygon fill="#000000" stroke="#000000" points="222.9148,-328.537 224.02,-318 216.585,-325.548 222.9148,-328.537"/>
<text text-anchor="middle" x="228.5" y="-339.8" font-family="Times,serif" font-size="14.00" fill="#000000">enter</text>
</g>
<!-- 4315229440 -->
<g id="node5" class="node">
<title>4315229440</title>
<polygon fill="none" stroke="#000000" points="396.5,-36 342.5,-36 342.5,0 396.5,0 396.5,-36"/>
<text text-anchor="start" x="354.5" y="-14.3" font-family="Times,serif" font-size="14.00" fill="#000000">leave</text>
</g>
<!-- 4315279952&#45;&gt;4315229440 -->
<g id="edge4" class="edge">
<title>4315279952&#45;&gt;4315229440</title>
<path fill="none" stroke="#000000" d="M464.17,-227.9C461.18,-213.13 456.21,-191.85 449.5,-174 431.75,-126.75 403.42,-75.248 385.67,-44.835"/>
<polygon fill="#000000" stroke="#000000" points="388.6184,-42.9441 380.53,-36.101 382.5856,-46.4945 388.6184,-42.9441"/>
<text text-anchor="middle" x="454" y="-144.8" font-family="Times,serif" font-size="14.00" fill="#000000">next</text>
</g>
<!-- 4315280048&#45;&gt;4315279472 -->
<g id="edge5" class="edge">
<title>4315280048&#45;&gt;4315279472</title>
<path fill="none" stroke="#000000" d="M216.23,-281.83C200.87,-264.19 177.68,-236.3 160.5,-210 144.01,-184.75 128.37,-154 118.02,-132.32"/>
<polygon fill="#000000" stroke="#000000" points="121.08,-130.6029 113.65,-123.05 114.7483,-133.5878 121.08,-130.6029"/>
<text text-anchor="start" x="160.5" y="-188.3" font-family="Times,serif" font-size="14.00" fill="#000000">raise</text>
</g>
<!-- 4315280096 -->
<g id="node6" class="node">
<title>4315280096</title>
<polygon fill="none" stroke="#000000" points="440,-210 361,-210 361,-174 440,-174 440,-210"/>
<text text-anchor="middle" x="400.5" y="-188.3" font-family="Times,serif" font-size="14.00" fill="#000000">6: continue</text>
</g>
<!-- 4315280048&#45;&gt;4315280096 -->
<g id="edge6" class="edge">
<title>4315280048&#45;&gt;4315280096</title>
<path fill="none" stroke="#000000" d="M260.6,-281.9C268.06,-276.54 275.88,-270.38 282.5,-264 297.1,-249.93 294.3,-240.19 310.5,-228 314.3,-225.14 332.25,-217.8 351.14,-210.49"/>
<polygon fill="#000000" stroke="#000000" points="352.6477,-213.6604 360.73,-206.81 350.1398,-207.125 352.6477,-213.6604"/>
<text text-anchor="middle" x="324.5" y="-242.3" font-family="Times,serif" font-size="14.00" fill="#000000">enter</text>
</g>
<!-- 4315280192 -->
<g id="node7" class="node">
<title>4315280192</title>
<polygon fill="none" stroke="#000000" points="342.5,-210 196.5,-210 196.5,-174 342.5,-174 342.5,-210"/>
<text text-anchor="middle" x="269.5" y="-188.3" font-family="Times,serif" font-size="14.00" fill="#000000">7: elif other_condition:</text>
</g>
<!-- 4315280048&#45;&gt;4315280192 -->
<g id="edge7" class="edge">
<title>4315280048&#45;&gt;4315280192</title>
<path fill="none" stroke="#000000" d="M238.78,-281.68C244.61,-264.66 253.37,-239.1 260.04,-219.61"/>
<polygon fill="#000000" stroke="#000000" points="263.3852,-220.6446 263.32,-210.05 256.7641,-218.3729 263.3852,-220.6446"/>
<text text-anchor="middle" x="267.5" y="-242.3" font-family="Times,serif" font-size="14.00" fill="#000000">else</text>
</g>
<!-- 4315280096&#45;&gt;4315279904 -->
<g id="edge8" class="edge">
<title>4315280096&#45;&gt;4315279904</title>
<path fill="none" stroke="#000000" d="M390.71,-210.09C375.84,-236.32 345.46,-285.35 309.5,-318 289.12,-336.51 262.97,-352.41 240.48,-364.27"/>
<polygon fill="#000000" stroke="#000000" points="238.6985,-361.2505 231.41,-368.94 241.9029,-367.474 238.6985,-361.2505"/>
<text text-anchor="middle" x="355" y="-296.3" font-family="Times,serif" font-size="14.00" fill="#000000">next</text>
</g>
<!-- 4315280192&#45;&gt;4315279904 -->
<g id="edge9" class="edge">
<title>4315280192&#45;&gt;4315279904</title>
<path fill="none" stroke="#000000" d="M315.95,-210.1C325.36,-215.04 334.73,-221 342.5,-228 374.26,-256.63 395.19,-279.54 376.5,-318 366.12,-339.35 355.81,-340.54 334.5,-351 314.07,-361.03 290.59,-368.43 268.64,-373.82"/>
<polygon fill="#000000" stroke="#000000" points="267.6144,-370.4656 258.68,-376.16 269.2155,-377.28 267.6144,-370.4656"/>
<text text-anchor="middle" x="395.5" y="-296.3" font-family="Times,serif" font-size="14.00" fill="#000000">else</text>
</g>
<!-- 4315280192&#45;&gt;4315279472 -->
<g id="edge10" class="edge">
<title>4315280192&#45;&gt;4315279472</title>
<path fill="none" stroke="#000000" d="M235.52,-173.97C208.12,-159.44 169.69,-139.05 141.71,-124.21"/>
<polygon fill="#000000" stroke="#000000" points="143.1343,-121.0036 132.66,-119.41 139.8543,-127.1877 143.1343,-121.0036"/>
<text text-anchor="start" x="197.5" y="-144.8" font-family="Times,serif" font-size="14.00" fill="#000000">raise</text>
</g>
<!-- 4315280240 -->
<g id="node8" class="node">
<title>4315280240</title>
<polygon fill="none" stroke="#000000" points="360.5,-123 298.5,-123 298.5,-87 360.5,-87 360.5,-123"/>
<text text-anchor="middle" x="329.5" y="-101.3" font-family="Times,serif" font-size="14.00" fill="#000000">8: break</text>
</g>
<!-- 4315280192&#45;&gt;4315280240 -->
<g id="edge11" class="edge">
<title>4315280192&#45;&gt;4315280240</title>
<path fill="none" stroke="#000000" d="M281.93,-173.97C290.38,-161.73 301.7,-145.32 311.17,-131.58"/>
<polygon fill="#000000" stroke="#000000" points="314.2897,-133.2208 317.08,-123 308.525,-129.25 314.2897,-133.2208"/>
<text text-anchor="middle" x="317.5" y="-144.8" font-family="Times,serif" font-size="14.00" fill="#000000">enter</text>
</g>
<!-- 4315280240&#45;&gt;4315229440 -->
<g id="edge14" class="edge">
<title>4315280240&#45;&gt;4315229440</title>
<path fill="none" stroke="#000000" d="M337.79,-86.974C343.31,-74.958 350.68,-58.94 356.92,-45.365"/>
<polygon fill="#000000" stroke="#000000" points="360.2267,-46.5512 361.22,-36.003 353.8656,-43.6295 360.2267,-46.5512"/>
<text text-anchor="middle" x="365" y="-57.8" font-family="Times,serif" font-size="14.00" fill="#000000">next</text>
</g>
<!-- 4315280480 -->
<g id="node9" class="node">
<title>4315280480</title>
<polygon fill="none" stroke="#000000" points="101.5,-492 41.5,-492 41.5,-456 101.5,-456 101.5,-492"/>
<text text-anchor="middle" x="71.5" y="-470.3" font-family="Times,serif" font-size="14.00" fill="#000000">3: b = 2</text>
</g>
<!-- 4315280480&#45;&gt;4315279904 -->
<g id="edge12" class="edge">
<title>4315280480&#45;&gt;4315279904</title>
<path fill="none" stroke="#000000" d="M96.364,-455.97C114.3,-442.97 138.72,-425.27 158.32,-411.06"/>
<polygon fill="#000000" stroke="#000000" points="160.6325,-413.7063 166.67,-405 156.521,-408.0411 160.6325,-413.7063"/>
<text text-anchor="middle" x="152" y="-426.8" font-family="Times,serif" font-size="14.00" fill="#000000">next</text>
</g>
<!-- 4315280480&#45;&gt;4315279472 -->
<g id="edge13" class="edge">
<title>4315280480&#45;&gt;4315279472</title>
<path fill="none" stroke="#000000" d="M67.504,-455.77C64.013,-438.24 59.5,-410.94 59.5,-387 59.5,-387 59.5,-387 59.5,-192 59.5,-169.74 71.415,-147.6 83.117,-131.23"/>
<polygon fill="#000000" stroke="#000000" points="85.93,-133.3127 89.153,-123.22 80.3396,-129.1 85.93,-133.3127"/>
<text text-anchor="start" x="59.5" y="-296.3" font-family="Times,serif" font-size="14.00" fill="#000000">raise</text>
</g>
<!-- 4315280576 -->
<g id="node10" class="node">
<title>4315280576</title>
<polygon fill="none" stroke="#000000" points="59,-579 0,-579 0,-543 59,-543 59,-579"/>
<text text-anchor="middle" x="29.5" y="-557.3" font-family="Times,serif" font-size="14.00" fill="#000000">2: a = 1</text>
</g>
<!-- 4315280576&#45;&gt;4315279472 -->
<g id="edge15" class="edge">
<title>4315280576&#45;&gt;4315279472</title>
<path fill="none" stroke="#000000" d="M24.172,-542.85C19.518,-525.37 13.5,-498.11 13.5,-474 13.5,-474 13.5,-474 13.5,-192 13.5,-159.75 43.712,-135.89 69.51,-121.4"/>
<polygon fill="#000000" stroke="#000000" points="71.2194,-124.455 78.395,-116.66 67.9246,-118.2789 71.2194,-124.455"/>
<text text-anchor="start" x="13.5" y="-339.8" font-family="Times,serif" font-size="14.00" fill="#000000">raise</text>
</g>
<!-- 4315280576&#45;&gt;4315280480 -->
<g id="edge16" class="edge">
<title>4315280576&#45;&gt;4315280480</title>
<path fill="none" stroke="#000000" d="M38.202,-542.97C44.003,-530.96 51.736,-514.94 58.29,-501.36"/>
<polygon fill="#000000" stroke="#000000" points="61.613,-502.5271 62.809,-492 55.3093,-499.4836 61.613,-502.5271"/>
<text text-anchor="middle" x="66" y="-513.8" font-family="Times,serif" font-size="14.00" fill="#000000">next</text>
</g>
<!-- 4315279664 -->
<g id="node11" class="node">
<title>4315279664</title>
<polygon fill="none" stroke="#000000" points="56.5,-666 2.5,-666 2.5,-630 56.5,-630 56.5,-666"/>
<text text-anchor="start" x="17" y="-644.3" font-family="Times,serif" font-size="14.00" fill="#000000">start</text>
</g>
<!-- 4315279664&#45;&gt;4315280576 -->
<g id="edge17" class="edge">
<title>4315279664&#45;&gt;4315280576</title>
<path fill="none" stroke="#000000" d="M29.5,-629.97C29.5,-618.19 29.5,-602.56 29.5,-589.16"/>
<polygon fill="#000000" stroke="#000000" points="33.0001,-589 29.5,-579 26.0001,-589 33.0001,-589"/>
<text text-anchor="middle" x="43.5" y="-600.8" font-family="Times,serif" font-size="14.00" fill="#000000">enter</text>
</g>
</g>
</svg>
